<svg id="Layer_1" data-name="Layer 1" xmlns="http://www.w3.org/2000/svg" xmlns:xlink="http://www.w3.org/1999/xlink" viewBox="0 0 892.81 356.85"><defs><style>.cls-1{fill:url(#linear-gradient);}.cls-2{fill:url(#linear-gradient-2);}.cls-3{fill:url(#linear-gradient-3);}.cls-4{fill:url(#linear-gradient-4);}.cls-5{fill:url(#linear-gradient-5);}.cls-6{fill:url(#linear-gradient-6);}.cls-7{fill:url(#linear-gradient-7);}.cls-8{fill:url(#linear-gradient-8);}.cls-9{fill:url(#linear-gradient-9);}.cls-10{fill:url(#linear-gradient-10);}.cls-11{fill:url(#linear-gradient-11);}.cls-12{fill:url(#linear-gradient-12);}.cls-13{fill:url(#linear-gradient-13);}.cls-14{fill:url(#linear-gradient-14);}.cls-15{fill:url(#linear-gradient-15);}.cls-16{fill:url(#linear-gradient-16);}.cls-17{fill:url(#linear-gradient-17);}.cls-18{fill:url(#linear-gradient-18);}.cls-19{fill:url(#linear-gradient-19);}.cls-20{fill:url(#linear-gradient-20);}.cls-21{fill:url(#linear-gradient-21);}.cls-22{fill:url(#linear-gradient-22);}.cls-23{fill:url(#linear-gradient-23);}.cls-24{fill:url(#linear-gradient-24);}.cls-25{fill:url(#linear-gradient-25);}.cls-26{fill:url(#linear-gradient-26);}.cls-27{fill:url(#linear-gradient-27);}</style><linearGradient id="linear-gradient" x1="254.91" y1="92.94" x2="350.96" y2="92.94" gradientUnits="userSpaceOnUse"><stop offset="0.26"/><stop offset="0.5" stop-color="gray"/><stop offset="0.7"/></linearGradient><linearGradient id="linear-gradient-2" x1="317.41" y1="165.39" x2="386.2" y2="165.39" xlink:href="#linear-gradient"/><linearGradient id="linear-gradient-3" x1="53.9" y1="323.39" x2="194.1" y2="323.39" xlink:href="#linear-gradient"/><linearGradient id="linear-gradient-4" x1="284.23" y1="359.33" x2="352.88" y2="359.33" xlink:href="#linear-gradient"/><linearGradient id="linear-gradient-5" x1="87.24" y1="251.49" x2="254.13" y2="251.49" xlink:href="#linear-gradient"/><linearGradient id="linear-gradient-6" x1="348.14" y1="90.2" x2="378.65" y2="90.2" gradientUnits="userSpaceOnUse"><stop offset="0.13" stop-color="#ac140f"/><stop offset="0.18" stop-color="#a11c0e"/><stop offset="0.53" stop-color="#fa0f0c"/><stop offset="0.86" stop-color="#a11c0e"/></linearGradient><linearGradient id="linear-gradient-7" x1="146.33" y1="254.04" x2="240.68" y2="254.04" xlink:href="#linear-gradient-6"/><linearGradient id="linear-gradient-8" x1="183.41" y1="232.37" x2="273.29" y2="232.37" xlink:href="#linear-gradient-6"/><linearGradient id="linear-gradient-9" x1="214.52" y1="199.05" x2="319.08" y2="199.05" xlink:href="#linear-gradient-6"/><linearGradient id="linear-gradient-10" x1="247.52" y1="394.31" x2="289.47" y2="394.31" xlink:href="#linear-gradient-6"/><linearGradient id="linear-gradient-11" x1="417.35" y1="293.25" x2="422.35" y2="155.25" xlink:href="#linear-gradient-6"/><linearGradient id="linear-gradient-12" x1="515.86" y1="296.82" x2="520.86" y2="158.82" xlink:href="#linear-gradient-6"/><linearGradient id="linear-gradient-13" x1="611.02" y1="300.26" x2="616.02" y2="162.26" xlink:href="#linear-gradient-6"/><linearGradient id="linear-gradient-14" x1="675.86" y1="302.61" x2="680.86" y2="164.61" xlink:href="#linear-gradient-6"/><linearGradient id="linear-gradient-15" x1="765.64" y1="305.87" x2="770.64" y2="167.87" xlink:href="#linear-gradient-6"/><linearGradient id="linear-gradient-16" x1="890.59" y1="310.39" x2="895.59" y2="172.39" xlink:href="#linear-gradient-6"/><linearGradient id="linear-gradient-17" x1="394.77" y1="353.92" x2="392.1" y2="304.58" xlink:href="#linear-gradient"/><linearGradient id="linear-gradient-18" x1="450.52" y1="350.9" x2="447.85" y2="301.57" xlink:href="#linear-gradient"/><linearGradient id="linear-gradient-19" x1="511.21" y1="347.62" x2="508.54" y2="298.29" xlink:href="#linear-gradient"/><linearGradient id="linear-gradient-20" x1="555.47" y1="345.23" x2="552.8" y2="295.9" xlink:href="#linear-gradient"/><linearGradient id="linear-gradient-21" x1="599.17" y1="342.87" x2="596.51" y2="293.53" xlink:href="#linear-gradient"/><linearGradient id="linear-gradient-22" x1="657.67" y1="339.7" x2="655.01" y2="290.37" xlink:href="#linear-gradient"/><linearGradient id="linear-gradient-23" x1="713.05" y1="336.71" x2="710.39" y2="287.38" xlink:href="#linear-gradient"/><linearGradient id="linear-gradient-24" x1="772.03" y1="333.52" x2="769.36" y2="284.19" xlink:href="#linear-gradient"/><linearGradient id="linear-gradient-25" x1="818.22" y1="331.03" x2="815.55" y2="281.69" xlink:href="#linear-gradient"/><linearGradient id="linear-gradient-26" x1="861.92" y1="328.66" x2="859.25" y2="279.33" xlink:href="#linear-gradient"/><linearGradient id="linear-gradient-27" x1="922.61" y1="325.38" x2="919.94" y2="276.05" xlink:href="#linear-gradient"/></defs><path class="cls-1" d="M339.16,81.46a35.82,35.82,0,0,1,3.64.49A23.56,23.56,0,0,1,351,71.8h-.08c-19.36-.41-37.12,6-54.44,13.7a320,320,0,0,0-40.89,22.22c-.32,2.12-.52,4.25-.64,6.4,15.37-10.15,31.38-19.19,48.74-25.84C315.07,83.9,326.72,80.48,339.16,81.46Z" transform="translate(-53.9 -71.77)"/><path class="cls-2" d="M384.85,96.25a22.07,22.07,0,0,1-5.63,9.83,21.77,21.77,0,0,1-15.66,6.57,20.92,20.92,0,0,1-2.25-.12c-1.22,14.25-6.62,27.3-12.73,40.07-8.59,18-19.31,34.66-31.17,50.62,4.95,8.72,8.12,19.35,9.23,31.31a398.29,398.29,0,0,0,37.42-57c10.69-20.12,19.93-40.8,21.88-63.93A52.06,52.06,0,0,0,384.85,96.25Z" transform="translate(-53.9 -71.77)"/><path class="cls-3" d="M193.68,360.66c-6.58-6.4-12.09-11.7-16.86-19.42-.83-.25-.82.23-1.72.62-7,3.05-32,19.78-49.3,23.63-11.3,4.43-22.93,7.35-35.25,6.37C79.22,371,71,363,69.5,351.81c-1.32-10,.58-19.62,3.64-29,8.19-25.13,22-47.25,37.13-68.62,1.77-2.49,2.43-4.13,1.74-5.9l-.69-1.24a16,16,0,0,0-2.06-2.32,10.11,10.11,0,0,1-.53.9,366.52,366.52,0,0,0-34.81,54.68c-9.67,18.83-18,38.18-19.75,59.61-.88,10.49.12,20.72,6.67,29.5,7,9.36,17.14,12.26,28.14,12.67,12.08.45,23.68-2.39,35.07-6.12,18.57-6.1,40.52-16.69,57.3-26.6,4.33-2.55,8.5-5.38,12.75-8.09C193.8,360.82,193.75,360.66,193.68,360.66Z" transform="translate(-53.9 -71.77)"/><path class="cls-4" d="M316.84,290q-1.29,2.69-2.73,5.22C325,313.88,334.5,333.14,340.68,354c3.21,10.82,5.52,21.79,4,33.23-1.63,12-9.22,18.74-21.31,18.74h-.14c-7.58,0-14.64-2.25-21.49-5.18-1.85-.79-3.68-1.63-5.48-2.5a28.1,28.1,0,0,1-12,19.49c11.08,5.57,22.68,9.75,35.37,10.72,1.07.08,2.11.12,3.14.12,14.38,0,24.83-7.94,28.48-22.29a58.4,58.4,0,0,0,1.63-12.72c.34-13.13-2.5-25.8-6.35-38.24C339.36,332.29,328.92,310.77,316.84,290Z" transform="translate(-53.9 -71.77)"/><path class="cls-5" d="M222.24,341c-2.71-2.72-5.4-5.47-8-8.26-3.21-3.37-6.35-6.81-9.45-10.27a518.5,518.5,0,0,1-51.36-68l-.14-.22c-.26-.41-.54-.83-.8-1.25q-3-4.66-5.82-9.4c0-.08-.09-.15-.13-.22Q143.19,238,140,232.37c-9.56-17-17.74-34.69-23.08-53.64C114,168.42,112,158,113.56,147.17c1.38-9.67,7.1-16.67,15.76-18a34.67,34.67,0,0,1,5.31-.39,45.5,45.5,0,0,1,7.12.59c10.79,1.75,20.38,6.75,30,12l2.88-6.64a160,160,0,0,0-34.07-17.13c-7.27-2.55-14.66-4.33-22.32-4.33-1.41,0-2.84.07-4.27.19-10.68,1-18.93,6-22.88,16.07a57.77,57.77,0,0,0-3.75,17.51c-.82,14.91,2.87,29.22,7.47,43.26,8.79,26.82,21.89,51.57,36.85,75.37Q144,285.28,158,303.61c1,1.34,2,2.68,3.08,4q14.44,18.61,30.59,35.93c15.44,16.56,31.63,32.25,49.29,46.13a28.89,28.89,0,0,1,8-15.14,29.5,29.5,0,0,1,5.24-4.21l-2.92-2.46Q236.09,355,222.24,341Z" transform="translate(-53.9 -71.77)"/><path class="cls-6" d="M363.27,74.76h0c-5.84,0-11.32,4.06-13.76,9.4a14.34,14.34,0,0,0-1.33,6,15.56,15.56,0,0,0,15.44,15.44h0a15.18,15.18,0,0,0,15-15.27A15.38,15.38,0,0,0,363.27,74.76Z" transform="translate(-53.9 -71.77)"/><path class="cls-7" d="M215,264.32c-22.47-28.26-43.36-57.08-49.34-94.37-5.11,7.07-8.8,14.78-12.94,22.39a52.79,52.79,0,0,0-6.38,26.35,65.11,65.11,0,0,0,1.28,10.83c1.86,3.27,3.8,6.6,5.86,10a509.2,509.2,0,0,0,73.38,94.77c3.34,1.39,6.78,2.67,10.35,3.83,4.59-13.79,4.88-26.74-.7-38.51A182.64,182.64,0,0,0,215,264.32Z" transform="translate(-53.9 -71.77)"/><path class="cls-8" d="M233,261.49c14.17,20.39,32.15,39.56,31.34,67A114.5,114.5,0,0,0,271.82,307c4.69-20.72-2.22-38.51-14.75-54.67-15.13-19.5-31.55-37.83-44.43-59a148.57,148.57,0,0,1-13.53-28c-1.71-4.89-3.34-8.16-4.33-13.24-.54-2.71-2.14-11.23-1.48-16-1.23,2.52-1.74,5.19-3.3,7.27-12.14,16.25-6.22,49.61,7.28,70.58C208,230.74,221.7,245.2,233,261.49Z" transform="translate(-53.9 -71.77)"/><path class="cls-9" d="M295.15,191.19c4,12,2.88,22.87.5,27.24-18.57-16.57-32.1-39.61-40.93-61.93-4.79-12.12-7.75-24.39-7.93-36.9,0-2.08,0-4.17.15-6.27a83.92,83.92,0,0,1,6.67-27.79c-27.72,13.75-49.12,43.2-34.2,78.57,4,9.4,9.61,18.23,15.36,26.71,14.92,22,30.81,43.35,45.39,65.57,9.3,14.17,13.73,30.09,10.12,47.4a75.86,75.86,0,0,1-1.88,8.77,61.46,61.46,0,0,0,16.4-17.36c.82-1.26,1.6-2.56,2.35-3.88s1.48-2.72,2.17-4.12c.9-1.82,1.73-3.68,2.51-5.58.63-1.56,1.23-3.14,1.78-4.75s1.1-3.32,1.58-5a101.94,101.94,0,0,0,3.89-27.79c0-12.32-2.33-24.21-7.12-34C308,202.05,302.45,195.44,295.15,191.19Z" transform="translate(-53.9 -71.77)"/><path class="cls-10" d="M286.91,384.19a20.92,20.92,0,0,0-16.23-11,22.64,22.64,0,0,0-2.35-.14h-.06a18.19,18.19,0,0,0-3.83.42,20.15,20.15,0,0,0-4.49,1.58c-7.15,3.5-12.52,11.16-12.43,19.24,0,.15,0,.3,0,.45a22.54,22.54,0,0,0,.88,5.64,21.16,21.16,0,0,0,4.29,7.89,20.74,20.74,0,0,0,9.71,6.32,21.85,21.85,0,0,0,6.32.93h0a19.19,19.19,0,0,0,2.64-.19,20,20,0,0,0,5.45-1.49,21,21,0,0,0,12.57-19c0-.1,0-.2,0-.3A23,23,0,0,0,289,390,21.69,21.69,0,0,0,286.91,384.19Z" transform="translate(-53.9 -71.77)"/><path class="cls-11" d="M466.23,260.66l-16,20.64H373V201h93L449.91,221.9H398v9.6h63.6l-14.28,18.24H398v10.92Z" transform="translate(-53.9 -71.77)"/><path class="cls-12" d="M561.75,260.66,545.67,281.3H474.75V201h24.84v59.64Z" transform="translate(-53.9 -71.77)"/><path class="cls-13" d="M657,260.66,641,281.3H570V201h24.84v59.64Z" transform="translate(-53.9 -71.77)"/><path class="cls-14" d="M690.51,281.3H665.67V201h24.84Z" transform="translate(-53.9 -71.77)"/><path class="cls-15" d="M740,281.3l15-20.64h27.66q3.9,0,6.78.24-1.68-2.16-3.9-5.46t-4.26-6.18L766.83,228,729.15,281.3h-29.4l51.48-72.6a27.76,27.76,0,0,1,6.36-6.24,18.49,18.49,0,0,1,19.14-.18,24.5,24.5,0,0,1,6.42,6.42l50.16,72.6Z" transform="translate(-53.9 -71.77)"/><path class="cls-16" d="M916.59,233.06q14.76,0,22.44,5.46t7.68,16.5a30.16,30.16,0,0,1-1.92,11,19.54,19.54,0,0,1-6.12,8.28,29.54,29.54,0,0,1-10.74,5.16,59.58,59.58,0,0,1-15.66,1.8H837.51l16-20.64h60.72q4.44,0,6.48-1.38a5,5,0,0,0,2-4.5,4.88,4.88,0,0,0-2-4.44q-2-1.32-6.48-1.32H870.51a47.41,47.41,0,0,1-13.44-1.68,27,27,0,0,1-9.36-4.68,18.44,18.44,0,0,1-5.52-7.26,24,24,0,0,1-1.8-9.42,25.79,25.79,0,0,1,2-10.26,19.76,19.76,0,0,1,6.12-7.86,30.14,30.14,0,0,1,10.68-5,59.58,59.58,0,0,1,15.66-1.8h69.72l-16,20.88H872.91a13.34,13.34,0,0,0-6.42,1.2q-2.1,1.2-2.1,4.32t2.1,4.38q2.1,1.26,6.42,1.26Z" transform="translate(-53.9 -71.77)"/><path class="cls-17" d="M413.45,326.17l-7.05,9.11H372.27V299.83h41.07l-7.1,9.22H383.29v4.24h28.09l-6.31,8H383.29v4.83Z" transform="translate(-53.9 -71.77)"/><path class="cls-18" d="M463.74,335.87a5.78,5.78,0,0,1-4.4-1.91l-21.73-19.51v20.83h-10V305.87a8.27,8.27,0,0,1,.5-3,5.82,5.82,0,0,1,1.33-2.07,5.09,5.09,0,0,1,1.91-1.17,7.08,7.08,0,0,1,2.25-.37,6.43,6.43,0,0,1,2,.35,7.09,7.09,0,0,1,2.36,1.56l21.73,19.5V299.83h10v29.36a8.13,8.13,0,0,1-.51,3A6.08,6.08,0,0,1,468,334.3a4.82,4.82,0,0,1-1.94,1.19A7.08,7.08,0,0,1,463.74,335.87Z" transform="translate(-53.9 -71.77)"/><path class="cls-19" d="M508.74,313.13h22.68v22.15H507.1a25.58,25.58,0,0,1-8.54-1.38,20.91,20.91,0,0,1-6.75-3.79,17.49,17.49,0,0,1-4.46-5.72,16.25,16.25,0,0,1-1.61-7.18,15.61,15.61,0,0,1,1.61-7.08,16.92,16.92,0,0,1,4.46-5.51,20.28,20.28,0,0,1,6.75-3.55,28.11,28.11,0,0,1,8.54-1.24h25.38l-7.1,9.22H507.1a13.11,13.11,0,0,0-4.14.63,10.27,10.27,0,0,0-3.31,1.81,8.44,8.44,0,0,0-2.2,2.72,7.58,7.58,0,0,0-.79,3.48,7.53,7.53,0,0,0,2.94,6.14,10.21,10.21,0,0,0,3.31,1.73,13.9,13.9,0,0,0,4.19.61h13.41V321H502.17Z" transform="translate(-53.9 -71.77)"/><path class="cls-20" d="M559.46,335.28h-11V299.83h11Z" transform="translate(-53.9 -71.77)"/><path class="cls-21" d="M612.83,335.87a5.78,5.78,0,0,1-4.4-1.91L586.7,314.45v20.83h-10V305.87a8.27,8.27,0,0,1,.5-3,5.82,5.82,0,0,1,1.33-2.07,5,5,0,0,1,1.9-1.17,7.18,7.18,0,0,1,2.26-.37,6.43,6.43,0,0,1,2,.35,7.09,7.09,0,0,1,2.36,1.56l21.73,19.5V299.83h10v29.36a8.13,8.13,0,0,1-.5,3,6.24,6.24,0,0,1-1.32,2.09,4.82,4.82,0,0,1-1.94,1.19A7.08,7.08,0,0,1,612.83,335.87Z" transform="translate(-53.9 -71.77)"/><path class="cls-22" d="M677.12,326.17l-7,9.11H635.94V299.83H677l-7.1,9.22H647v4.24h28.09l-6.3,8H647v4.83Z" transform="translate(-53.9 -71.77)"/><path class="cls-23" d="M732.66,326.17l-7,9.11H691.48V299.83h41.08l-7.11,9.22H702.51v4.24H730.6l-6.31,8H702.51v4.83Z" transform="translate(-53.9 -71.77)"/><path class="cls-24" d="M797.32,335.28H782.64l-7.9-9.38H757.89v9.38h-11V317.16h30.85a8.22,8.22,0,0,0,4.29-1.06,3.28,3.28,0,0,0,1.75-2.92,3.45,3.45,0,0,0-1.59-3.1,8.14,8.14,0,0,0-4.45-1H746.92l7.15-9.22h22.79a37,37,0,0,1,6.26.55,19.25,19.25,0,0,1,5.88,2,12.43,12.43,0,0,1,4.37,3.87,10.56,10.56,0,0,1,1.73,6.25,12.07,12.07,0,0,1-.64,3.92,10.82,10.82,0,0,1-4.74,5.86,11.9,11.9,0,0,1-3.9,1.46,26.1,26.1,0,0,1,2,1.75c.74.7,1.73,1.68,3,2.91Z" transform="translate(-53.9 -71.77)"/><path class="cls-25" d="M823,335.28H812V299.83h11Z" transform="translate(-53.9 -71.77)"/><path class="cls-26" d="M876.35,335.87a6.61,6.61,0,0,1-2.1-.35A6.49,6.49,0,0,1,872,334l-21.73-19.51v20.83h-10V305.87a8.05,8.05,0,0,1,.51-3,5.67,5.67,0,0,1,1.32-2.07,5.09,5.09,0,0,1,1.91-1.17,7.08,7.08,0,0,1,2.25-.37,6.43,6.43,0,0,1,2,.35,7,7,0,0,1,2.36,1.56l21.73,19.5V299.83h10v29.36a8.13,8.13,0,0,1-.51,3,5.94,5.94,0,0,1-1.32,2.09,4.75,4.75,0,0,1-1.94,1.19A7.07,7.07,0,0,1,876.35,335.87Z" transform="translate(-53.9 -71.77)"/><path class="cls-27" d="M921.34,313.13H944v22.15H919.7a25.48,25.48,0,0,1-8.53-1.38,20.86,20.86,0,0,1-6.76-3.79,17.33,17.33,0,0,1-4.45-5.72,16.12,16.12,0,0,1-1.62-7.18,15.49,15.49,0,0,1,1.62-7.08,16.77,16.77,0,0,1,4.45-5.51,20.24,20.24,0,0,1,6.76-3.55,28,28,0,0,1,8.53-1.24h25.39L938,309.05H919.7a13.16,13.16,0,0,0-4.14.63,10.27,10.27,0,0,0-3.31,1.81,8.57,8.57,0,0,0-2.2,2.72,7.79,7.79,0,0,0,2.15,9.62,10.21,10.21,0,0,0,3.31,1.73,13.9,13.9,0,0,0,4.19.61h13.41V321H914.77Z" transform="translate(-53.9 -71.77)"/></svg>